<svg xmlns="http://www.w3.org/2000/svg" version="1.0" width="1280.000000pt" height="868.000000pt" viewBox="0 0 1280.000000 868.000000" preserveAspectRatio="xMidYMid meet">

<g transform="translate(0.000000,868.000000) scale(0.100000,-0.100000)" fill="#000000" stroke="none">
<path d="M6082 7943 l3 -87 -45 -7 c-25 -4 -97 -12 -160 -19 -349 -36 -828 -155 -1230 -305 -276 -103 -682 -285 -708 -318 -21 -26 -11 -77 21 -101 25 -19 32 -19 95 -8 728 131 1227 189 1878 218 l151 6 6 -143 c4 -79 7 -205 7 -279 l0 -135 -138 -138 -139 -138 -64 80 c-35 44 -70 78 -76 76 -7 -2 -96 -78 -199 -167 -102 -90 -189 -163 -193 -163 -4 0 -42 42 -85 93 -112 133 -225 251 -256 267 -26 14 -31 12 -86 -27 -83 -58 -431 -329 -823 -642 l-334 -266 -1579 0 -1578 0 0 -1640 0 -1640 948 0 948 0 130 -315 c71 -173 134 -315 140 -315 6 0 58 20 115 44 97 40 426 165 476 180 23 7 27 1 63 -90 9 -22 10 -21 152 28 725 251 1521 408 2313 458 88 5 194 10 236 10 l76 0 6 -67 c4 -38 7 -204 7 -370 l0 -303 239 0 239 0 4 364 c2 200 6 368 11 372 4 4 105 2 225 -5 786 -43 1552 -189 2299 -439 l202 -68 29 67 30 67 128 -45 c71 -25 217 -81 324 -124 107 -43 198 -75 202 -71 5 5 211 498 255 610 4 9 204 12 954 12 l949 0 0 1640 0 1640 -1582 0 -1583 0 -489 380 c-269 209 -492 380 -496 380 -3 0 -21 -18 -38 -39 -31 -39 -32 -42 -32 -143 l0 -103 53 59 52 58 271 -218 c149 -121 270 -221 268 -223 -3 -3 -410 135 -425 145 -3 2 -30 -14 -59 -36 -30 -22 -55 -40 -56 -40 -2 0 -26 38 -54 84 l-51 85 -41 -15 c-62 -22 -63 -18 -14 37 50 56 52 66 40 188 l-7 62 -38 -37 -37 -37 -254 202 c-139 110 -257 201 -263 201 -5 -1 -33 -23 -62 -49 l-52 -49 240 -187 c133 -103 237 -190 232 -194 -4 -4 -92 -32 -194 -61 l-186 -53 -49 -98 c-26 -55 -52 -99 -56 -99 -5 0 -79 61 -166 135 -86 74 -160 135 -163 135 -4 0 -30 -27 -58 -59 l-52 -59 -101 64 c-55 35 -106 60 -112 57 -6 -4 -62 -40 -124 -81 l-114 -74 -50 21 c-28 12 -55 21 -60 21 -6 0 -80 -62 -167 -137 -86 -75 -164 -143 -173 -151 -16 -13 -29 -3 -145 109 -70 68 -158 152 -194 187 l-66 64 -78 -16 c-42 -9 -84 -16 -93 -16 -13 0 122 135 254 253 l40 36 69 -80 68 -80 136 133 c75 73 163 159 196 191 l61 57 86 -34 87 -34 123 219 c68 120 126 219 129 219 4 0 82 -101 174 -224 l168 -224 76 35 c42 19 100 46 130 60 l54 24 29 -21 c16 -12 35 -19 42 -17 7 3 31 27 54 55 l41 49 -84 67 -84 66 -116 -54 -116 -55 -33 37 c-18 20 -84 96 -145 167 l-111 130 2 100 3 100 155 -3 c190 -3 542 -26 790 -52 l185 -20 34 34 34 34 -44 6 c-24 3 -257 14 -518 25 -261 12 -476 23 -479 26 -3 3 39 6 94 6 116 2 317 15 259 17 -22 1 -110 6 -195 12 -85 5 -211 11 -280 12 l-125 3 -3 -91 -3 -91 -124 -209 -125 -209 -2 350 -3 350 -315 -1 c-335 -1 -483 -13 -755 -59 -76 -13 -141 -23 -142 -21 -2 2 43 15 99 30 309 80 658 143 948 171 l165 16 55 57 c31 31 90 95 133 142 l77 85 0 -136 0 -136 163 -7 c208 -9 352 -28 501 -66 65 -16 121 -30 125 -30 13 1 -39 26 -179 87 -80 35 -137 63 -128 63 50 0 407 -81 585 -133 l83 -25 -29 37 c-74 92 -84 97 -261 140 -199 49 -405 85 -600 106 -80 9 -151 18 -158 20 -10 4 -11 24 -6 90 l7 85 -323 0 -322 0 4 -87z m-998 -1563 c80 -93 143 -170 139 -170 -3 0 -37 10 -75 22 -37 12 -69 20 -71 17 -3 -2 -53 -86 -112 -187 -74 -125 -111 -179 -116 -170 -5 7 -25 61 -45 121 -34 98 -39 107 -58 101 -79 -26 -560 -164 -562 -162 -4 5 731 597 742 597 6 1 77 -75 158 -169z m6986 -2280 l0 -1460 -821 0 c-653 0 -820 3 -816 13 3 6 13 31 22 55 l17 42 744 0 744 0 0 1350 0 1350 -5560 0 -5560 0 0 -1350 0 -1350 744 0 744 0 17 -42 c9 -24 19 -49 22 -55 4 -10 -163 -13 -816 -13 l-821 0 0 1460 0 1460 5670 0 5670 0 0 -1460z m-10397 673 c14 -60 44 -193 68 -298 23 -104 45 -193 49 -198 3 -4 36 129 71 295 l65 303 207 3 207 2 0 -90 c0 -87 -1 -91 -25 -100 -14 -5 -28 -21 -32 -37 -10 -35 -11 -619 -1 -654 4 -14 19 -31 33 -37 24 -11 25 -15 25 -107 l0 -95 -185 0 -185 0 0 92 c0 89 1 93 28 114 l27 22 2 299 2 298 -49 -205 c-27 -113 -70 -298 -97 -412 l-48 -208 -55 0 -55 0 -102 418 -102 417 0 -295 c0 -162 2 -305 5 -316 3 -12 17 -27 30 -33 24 -11 25 -14 22 -103 l-3 -93 -162 -3 -163 -2 0 99 c0 89 2 99 19 104 36 9 43 70 39 390 -3 316 -6 339 -48 352 -18 6 -20 15 -20 96 l0 89 204 0 204 0 25 -107z m6391 -203 c39 -170 71 -308 73 -307 3 3 133 601 133 611 0 3 92 6 205 6 l205 0 0 -86 c0 -83 -1 -87 -30 -114 l-30 -28 0 -324 c0 -277 2 -327 16 -346 8 -12 22 -22 30 -22 11 0 14 -20 14 -100 l0 -100 -185 0 -185 0 0 100 c0 81 3 100 15 100 35 0 40 38 42 335 1 160 0 285 -2 280 -3 -6 -47 -191 -98 -410 l-93 -400 -57 -3 c-31 -2 -57 0 -57 3 0 9 -180 778 -185 790 -2 6 -3 -125 -2 -290 l2 -300 23 -10 c21 -9 22 -16 22 -108 l0 -97 -162 2 -163 3 -3 98 c-2 80 0 97 12 97 8 0 22 10 30 22 14 19 16 70 16 351 l0 329 -30 28 c-29 27 -30 31 -30 114 l0 86 203 0 202 0 69 -310z m-5192 129 c52 -12 119 -63 146 -113 15 -27 17 -67 17 -356 0 -318 -1 -326 -22 -367 -49 -90 -150 -129 -313 -120 -52 3 -113 11 -135 19 -53 17 -117 82 -133 134 -15 51 -17 602 -2 653 40 139 216 199 442 150z m8533 -9 c33 -11 77 -32 97 -45 l38 -25 0 -115 0 -115 -105 0 -105 0 0 35 c0 42 -22 90 -45 99 -9 3 -36 6 -59 6 -54 0 -90 -33 -88 -82 1 -43 31 -69 124 -103 236 -88 283 -132 295 -274 11 -133 -49 -243 -159 -291 -111 -49 -283 -36 -425 32 l-63 29 0 120 0 119 110 0 110 0 0 -35 c0 -85 68 -133 144 -101 44 18 60 48 53 98 -7 54 -27 72 -116 108 -212 87 -260 123 -287 218 -35 118 11 240 112 302 85 53 249 62 369 20z m-574 -9 c50 -50 36 -130 -36 -210 -41 -45 -52 -49 -70 -24 -11 15 -9 23 18 52 l30 35 -31 8 c-95 25 -76 168 23 168 27 0 44 -8 66 -29z m-7391 -57 c0 -67 -3 -78 -22 -94 -23 -18 -23 -21 -23 -277 0 -292 3 -306 69 -319 51 -9 88 7 108 47 16 30 18 65 18 277 l0 243 -25 25 c-22 22 -25 33 -25 99 l0 75 145 0 145 0 0 -80 c0 -44 -4 -80 -9 -80 -5 0 -17 -7 -25 -16 -14 -13 -16 -52 -16 -274 0 -150 -5 -281 -11 -310 -14 -67 -62 -128 -129 -165 -51 -28 -62 -30 -160 -30 -93 0 -112 3 -162 27 -67 31 -110 89 -127 169 -6 28 -11 159 -11 292 0 133 -3 252 -6 263 -3 12 -17 27 -30 34 -22 12 -24 19 -24 92 l0 78 160 0 160 0 0 -76z m840 -179 c62 -140 115 -255 117 -255 2 0 3 70 3 155 0 153 0 156 -25 181 -22 22 -25 33 -25 99 l0 75 150 0 150 0 0 -76 c0 -67 -3 -78 -22 -94 l-23 -18 -3 -381 -3 -381 -97 0 -98 0 -89 203 c-49 111 -101 229 -116 262 l-28 60 -1 -163 c0 -161 0 -163 25 -186 22 -21 25 -31 25 -100 l0 -76 -150 0 -150 0 0 81 c0 72 3 83 23 99 22 18 22 20 22 300 0 282 0 283 -22 298 -21 13 -23 23 -23 93 l0 79 123 0 123 0 114 -255z m1170 60 l0 -196 -87 3 -88 3 -5 81 c-5 88 -18 114 -56 114 l-24 0 0 -269 c0 -269 6 -321 35 -321 12 0 15 -16 15 -85 l0 -86 -157 3 -158 3 -3 76 c-3 72 -1 77 23 93 l25 16 0 285 c0 275 -1 285 -19 285 -43 0 -59 -35 -63 -135 l-3 -60 -87 -3 -88 -3 0 196 0 195 370 0 370 0 0 -195z m484 178 c3 -10 37 -173 76 -363 72 -345 81 -378 106 -393 10 -6 14 -31 14 -87 l0 -80 -160 0 -160 0 0 79 c0 70 2 80 19 86 24 7 34 35 25 69 -6 26 -8 26 -95 26 l-88 0 -7 -35 c-7 -37 7 -65 32 -65 11 0 14 -19 14 -85 l0 -85 -145 0 -145 0 0 85 c0 67 3 87 15 91 22 9 37 70 105 429 33 176 63 326 65 333 3 9 45 12 164 12 143 0 160 -2 165 -17z m1006 -238 c62 -140 115 -255 117 -255 2 0 3 70 3 155 0 153 0 156 -25 181 -22 22 -25 33 -25 99 l0 75 150 0 150 0 0 -76 c0 -67 -3 -78 -22 -94 l-23 -18 -3 -381 -3 -381 -97 0 -98 0 -89 203 c-49 111 -101 229 -117 262 l-28 60 3 -169 c2 -162 3 -169 25 -184 20 -13 22 -23 22 -93 l0 -79 -150 0 -150 0 0 81 c0 72 3 83 23 99 22 18 22 20 22 300 0 280 0 282 -22 300 -20 16 -23 27 -23 94 l0 76 123 0 123 0 114 -255z m2920 178 c0 -76 -1 -78 -30 -95 -17 -10 -59 -63 -104 -132 l-76 -116 90 -163 c50 -89 102 -172 115 -184 23 -20 25 -29 25 -103 l0 -80 -144 0 -144 0 -4 103 c-4 101 -4 103 -57 202 -86 158 -81 158 -81 17 0 -118 1 -124 25 -146 22 -21 25 -31 25 -100 l0 -76 -155 0 -155 0 0 78 c0 65 3 80 20 95 19 16 20 29 20 302 0 274 -1 285 -20 297 -17 11 -20 24 -20 90 l0 78 155 0 155 0 0 -75 c0 -59 -3 -75 -15 -75 -26 0 -35 -37 -35 -142 l0 -103 67 100 68 100 3 103 4 102 134 0 134 0 0 -77z m740 -68 l0 -145 -104 0 -103 0 -7 40 c-8 50 -26 60 -115 60 l-71 0 0 -95 0 -95 130 0 130 0 0 -80 0 -80 -130 0 -130 0 0 -110 0 -110 73 0 c93 0 108 11 115 78 l5 52 104 0 104 0 -3 -157 -3 -158 -330 0 -330 0 -3 83 c-2 48 1 82 7 82 5 0 17 7 25 16 14 13 16 54 16 295 l0 279 -25 22 c-22 19 -25 30 -25 88 0 37 3 70 7 73 3 4 154 7 335 7 l328 0 0 -145z m-4100 61 c0 -65 -3 -75 -22 -88 -23 -15 -23 -19 -26 -254 -4 -280 1 -340 29 -349 17 -6 19 -16 19 -91 l0 -84 -155 0 -155 0 0 81 c0 72 3 83 23 99 22 18 22 20 22 300 0 282 0 283 -22 298 -20 13 -23 23 -23 88 l0 74 155 0 155 0 0 -74z m2610 0 c0 -65 -3 -75 -22 -88 -23 -15 -23 -18 -26 -285 -3 -272 2 -323 33 -323 12 0 15 -15 15 -85 l0 -85 -155 0 -155 0 0 83 c0 71 3 84 20 95 19 12 20 23 20 296 0 270 -1 284 -20 301 -17 15 -20 31 -20 92 l0 73 155 0 155 0 0 -74z m2565 -761 c30 -30 31 -54 4 -89 -39 -50 -119 -22 -119 43 0 20 9 36 26 50 35 27 59 26 89 -4z m-4578 -539 c832 -67 1560 -213 2315 -462 218 -72 227 -76 219 -97 -13 -34 -293 -712 -295 -714 -1 -1 -76 22 -166 52 -875 284 -1705 423 -2635 441 -998 20 -1969 -127 -2955 -445 -85 -27 -155 -49 -156 -48 -8 8 -303 731 -300 734 2 2 84 31 182 64 570 192 1223 342 1814 418 281 36 459 52 845 75 153 9 953 -4 1132 -18z m-3577 -277 c-63 -56 -109 -78 -322 -148 -176 -59 -187 -64 -177 -82 9 -18 -1 -25 -115 -79 -69 -33 -148 -69 -176 -81 -99 -42 -42 -27 136 35 l179 64 12 -26 c7 -15 12 -32 13 -38 0 -6 -81 -49 -179 -95 -99 -46 -179 -85 -178 -86 1 -1 80 26 175 59 l173 61 26 -25 c14 -14 23 -30 20 -35 -3 -5 -78 -42 -166 -83 -88 -41 -159 -75 -157 -77 2 -2 81 24 175 58 95 34 176 57 180 53 4 -5 12 -21 18 -36 l12 -26 -169 -78 c-93 -43 -168 -79 -166 -81 2 -2 81 24 175 57 95 33 174 60 176 60 6 0 25 -63 20 -70 -2 -4 -81 -42 -174 -86 -93 -43 -169 -80 -167 -81 2 -2 79 24 172 56 93 33 175 61 183 63 18 4 76 -131 58 -137 -76 -26 -359 -131 -416 -154 -41 -17 -79 -31 -85 -31 -7 0 -60 116 -118 258 -59 141 -127 305 -152 365 l-45 107 37 16 c220 95 991 360 1052 363 8 0 -5 -18 -30 -40z m5863 2 c333 -100 952 -323 952 -343 0 -20 -301 -728 -310 -728 -6 0 -62 21 -125 46 -62 25 -181 70 -264 100 -82 30 -152 57 -154 59 -3 3 7 34 23 70 24 57 30 65 49 59 11 -4 102 -35 200 -70 99 -35 181 -62 183 -61 1 2 -84 43 -190 92 -106 49 -193 89 -194 90 -6 3 22 65 30 65 5 0 92 -29 194 -65 102 -36 188 -64 189 -62 2 2 -77 41 -176 87 -100 45 -183 86 -185 91 -8 13 34 101 45 94 6 -4 9 -13 8 -22 -2 -11 42 -31 176 -79 99 -35 181 -62 183 -61 2 2 -69 37 -158 78 -88 40 -163 78 -166 82 -3 5 6 21 20 35 l26 25 162 -56 c89 -32 163 -56 165 -54 1 1 -79 40 -179 86 -100 47 -186 88 -190 92 -7 5 17 70 26 69 1 0 90 -32 197 -70 107 -38 196 -68 197 -66 1 1 -83 42 -188 91 -125 58 -188 92 -185 100 3 9 -35 27 -117 55 -158 54 -291 118 -347 169 -25 22 -41 41 -37 41 5 0 68 -18 140 -39z m-2833 -823 c0 -134 -3 -280 -7 -325 l-6 -83 -88 0 -89 0 0 325 0 325 95 0 95 0 0 -242z"/>
<path d="M2683 4508 c-37 -18 -43 -59 -43 -283 0 -219 7 -267 40 -285 31 -17 96 -12 121 9 24 19 24 21 27 252 2 128 0 244 -3 256 -14 56 -82 80 -142 51z"/>
<path d="M5751 4495 c-1 -5 -14 -83 -30 -172 l-28 -163 62 0 63 0 -15 78 c-43 226 -51 266 -52 257z"/>
<path d="M11585 3836 c-32 -48 22 -104 73 -77 29 16 37 48 18 76 -22 34 -70 34 -91 1z m62 -31 c1 -34 -1 -41 -18 -41 -16 0 -19 7 -19 44 0 36 3 43 18 40 12 -2 17 -14 19 -43z"/>
<path d="M6163 3173 l-283 -3 0 -43 c0 -23 3 -66 6 -94 l7 -53 48 0 49 0 0 49 0 49 83 7 c45 4 109 5 142 3 l60 -3 -203 -159 -202 -159 0 -44 0 -43 143 0 c78 0 226 3 330 7 l187 6 0 94 0 94 -52 -3 -53 -3 0 -45 0 -45 -78 -3 c-43 -2 -110 -2 -149 0 l-71 3 186 154 187 155 0 43 c0 41 -1 43 -27 41 -16 -2 -155 -4 -310 -5z"/>
<path d="M7036 3108 c-3 -29 -6 -72 -6 -94 l0 -41 48 -6 c26 -3 49 -4 51 -2 2 2 6 25 9 51 l5 46 81 -6 c177 -14 198 -18 184 -31 -7 -6 -103 -67 -213 -135 -110 -67 -202 -124 -204 -126 -2 -2 -6 -23 -8 -46 l-5 -44 327 -28 c180 -15 331 -24 335 -19 4 4 10 45 14 89 7 92 6 94 -65 94 l-39 0 0 -46 0 -47 -47 6 c-27 4 -88 9 -138 13 -49 4 -96 10 -103 14 -9 4 57 53 187 138 203 133 219 148 209 199 -3 16 -28 20 -248 39 -135 12 -272 25 -306 28 l-61 6 -7 -52z"/>
<path d="M5211 3109 c-84 -10 -155 -20 -158 -23 -3 -2 -2 -22 2 -43 6 -38 7 -38 45 -35 46 5 43 11 60 -148 6 -58 13 -115 16 -127 3 -19 -1 -23 -38 -28 l-43 -7 3 -49 c4 -49 4 -50 35 -45 18 3 75 10 127 16 180 20 170 17 170 58 0 49 -8 57 -55 57 l-40 0 -12 105 c-6 58 -14 124 -17 147 l-5 42 45 7 c40 6 45 9 40 28 -3 11 -6 31 -6 44 0 12 -3 21 -7 21 -5 -1 -77 -10 -162 -20z"/>
<path d="M4175 2936 c-228 -46 -214 -38 -199 -104 4 -19 10 -22 47 -20 l42 3 27 -130 c34 -164 34 -162 -2 -170 -32 -7 -35 -17 -24 -72 l6 -30 161 33 c88 19 161 35 163 37 2 1 -2 22 -8 46 l-11 43 -43 -7 c-23 -3 -44 -2 -47 2 -3 4 -8 29 -12 54 l-7 46 91 21 c169 40 241 90 241 170 0 46 -26 97 -56 111 -45 20 -155 10 -369 -33z m245 -66 c46 -46 15 -84 -86 -105 -38 -8 -74 -15 -80 -15 -9 0 -37 100 -30 107 1 2 139 28 169 32 4 1 16 -8 27 -19z"/>
<path d="M8523 2963 c-26 -3 -61 -35 -189 -169 -135 -141 -161 -164 -181 -160 -13 3 -34 9 -48 12 -25 6 -31 -4 -38 -65 -2 -23 3 -25 123 -52 69 -15 132 -28 141 -28 10 -1 19 13 26 43 10 43 9 45 -15 51 -22 5 -23 8 -11 21 13 13 26 12 100 -1 130 -24 129 -23 129 -46 0 -13 -6 -19 -17 -17 -17 3 -30 -25 -32 -68 -1 -19 12 -24 137 -51 75 -17 140 -27 143 -24 4 3 10 25 14 47 6 40 5 41 -24 47 -30 6 -31 10 -103 234 -81 251 -72 237 -155 226z m-4 -229 c7 -26 11 -48 9 -49 -2 -2 -26 1 -55 7 l-52 10 36 44 c20 24 40 41 43 39 4 -3 13 -26 19 -51z"/>
<path d="M7885 7565 c85 -81 93 -82 94 -9 1 29 -2 31 -71 53 -40 13 -80 26 -88 28 -8 3 21 -30 65 -72z"/>
<path d="M8070 7520 c0 -35 10 -38 36 -9 16 17 16 22 4 29 -27 17 -40 11 -40 -20z"/>
<path d="M8182 7460 c-24 -28 -29 -39 -19 -43 20 -7 287 -21 287 -14 0 4 -226 98 -233 96 -1 0 -17 -18 -35 -39z"/>
<path d="M8420 7322 c0 -5 50 -30 111 -56 60 -27 109 -50 107 -52 -2 -1 -102 13 -223 32 -121 18 -227 34 -235 34 -8 0 7 -22 35 -49 l50 -50 184 -31 c102 -17 216 -38 254 -46 91 -19 109 -18 141 7 31 25 36 77 8 102 -9 9 -65 39 -122 66 -105 51 -105 51 -207 51 -57 0 -103 -4 -103 -8z"/>
<path d="M7955 7230 c-3 -5 -1 -10 4 -10 6 0 11 5 11 10 0 6 -2 10 -4 10 -3 0 -8 -4 -11 -10z"/>
<path d="M8070 7225 c0 -8 4 -15 9 -15 5 0 17 -3 27 -7 23 -9 10 13 -17 27 -15 9 -19 7 -19 -5z"/>
</g>
</svg>